<?xml version="1.0" standalone="no"?>
<!DOCTYPE svg PUBLIC "-//W3C//DTD SVG 20010904//EN"
 "http://www.w3.org/TR/2001/REC-SVG-20010904/DTD/svg10.dtd">
<svg version="1.0" xmlns="http://www.w3.org/2000/svg"
 width="665.000000pt" height="393.000000pt" viewBox="0 0 665.000000 393.000000"
 preserveAspectRatio="xMidYMid meet">

<g transform="translate(0.000000,393.000000) scale(0.100000,-0.100000)"
fill="#000000" stroke="none">
<path d="M3217 3173 c-4 -3 -7 -588 -7 -1300 l0 -1293 310 0 310 0 0 1300 0
1300 -303 0 c-167 0 -307 -3 -310 -7z"/>
<path d="M1775 2940 c-33 -6 -100 -21 -150 -35 -310 -89 -579 -336 -696 -639
-97 -251 -95 -546 4 -791 130 -318 415 -565 741 -640 243 -56 492 -30 713 75
111 52 193 109 281 194 135 130 218 261 276 436 170 511 -63 1063 -549 1301
-141 69 -267 99 -430 104 -71 2 -157 0 -190 -5z m292 -781 c195 -93 239 -356
84 -507 -156 -151 -413 -108 -508 86 -24 49 -28 69 -28 142 0 72 4 92 27 135
30 59 104 130 155 152 95 39 176 37 270 -8z"/>
<path d="M4090 2318 l0 -213 115 -115 115 -115 -115 -115 -115 -115 0 -207 0
-208 207 0 208 0 115 115 115 115 115 -115 115 -115 212 0 213 0 0 202 0 203
-120 120 -120 120 120 120 120 120 0 207 0 208 -207 0 -208 0 -120 -120 -120
-120 -120 120 -120 120 -202 0 -203 0 0 -212z"/>
</g>
</svg>
